<svg xmlns="http://www.w3.org/2000/svg" viewBox="0 0 32 32" role="img" aria-label="Ankersted">
  <rect width="32" height="32" rx="7" fill="#5c6b4a"/>
  <path fill="#f7f4ef" d="M9.49 18.84L18.15 18.84L18.21 19.22L9.39 19.22ZM10.94 28.11Q10.94 28.18 10.91 28.21Q10.87 28.25 10.79 28.25L4.64 28.25Q4.57 28.25 4.53 28.21Q4.48 28.18 4.48 28.13Q4.48 28.06 4.54 28.01Q4.59 27.97 4.68 27.97L5.17 27.80Q5.81 27.59 6.50 26.85Q7.18 26.11 7.60 24.70L12.90 6.36Q13.15 5.50 12.94 5.01Q12.73 4.52 12.22 4.19Q11.98 4.01 11.86 3.98Q11.75 3.94 11.75 3.87Q11.75 3.80 11.79 3.78Q11.84 3.75 11.94 3.75L20.03 3.75Q20.11 3.75 20.16 3.78Q20.20 3.80 20.20 3.87Q20.20 3.92 20.10 3.99Q19.99 4.05 19.73 4.17Q19.41 4.26 19.33 4.45Q19.24 4.64 19.41 5.17L26.31 27.04Q26.43 27.43 26.68 27.64Q26.92 27.85 27.27 27.92Q27.39 27.97 27.45 28.00Q27.52 28.04 27.52 28.11Q27.52 28.18 27.46 28.21Q27.41 28.25 27.32 28.25L18.43 28.25Q18.36 28.25 18.31 28.21Q18.26 28.18 18.26 28.11Q18.26 28.04 18.32 28.02Q18.38 28.00 18.50 27.97L19.22 27.81Q19.69 27.69 19.79 27.45Q19.89 27.20 19.73 26.73L13.23 6.09L13.73 4.89L7.97 24.79Q7.74 25.55 7.99 26.15Q8.25 26.75 8.85 27.16Q9.46 27.59 10.29 27.85L10.75 27.97Q10.86 28.00 10.90 28.03Q10.94 28.06 10.94 28.11Z"/>
</svg>
